/* XPM */
static char *caeb197283474755b2d59613514491f6azHbCkj1epgFRFNF[] = {
/* columns rows colors chars-per-pixel */
"64 64 222 2 ",
"   c #000000",
".  c #0C0302",
"X  c #010A01",
"o  c #0C0A02",
"O  c #06030A",
"+  c #0B040A",
"@  c #020B0B",
"#  c #0A0B0A",
"$  c #130302",
"%  c #1E0502",
"&  c #140B02",
"*  c #1B0B03",
"=  c #130509",
"-  c #12090A",
";  c #1B0A09",
":  c #041204",
">  c #081208",
",  c #131103",
"<  c #1E1609",
"1  c #100910",
"2  c #1F0F10",
"3  c #170613",
"4  c #041713",
"5  c #240A04",
"6  c #2B0C03",
"7  c #220809",
"8  c #2B0C0C",
"9  c #320E0C",
"0  c #291107",
"q  c #25110C",
"w  c #2D140C",
"e  c #291903",
"r  c #351305",
"t  c #33130C",
"y  c #3C130B",
"u  c #36190D",
"i  c #3C1202",
"p  c #230811",
"a  c #251110",
"s  c #2C1213",
"d  c #2C1914",
"f  c #311A14",
"g  c #341A1B",
"h  c #3D1915",
"j  c #461A08",
"k  c #5A190D",
"l  c #451615",
"z  c #451B17",
"x  c #4D1915",
"c  c #471619",
"v  c #4B151D",
"b  c #471C1A",
"n  c #4A1D1B",
"m  c #4B1411",
"M  c #531513",
"N  c #50171E",
"B  c #591718",
"V  c #531C1B",
"C  c #5A1D1C",
"Z  c #531D13",
"A  c #631D1C",
"S  c #6B1E18",
"D  c #40240E",
"F  c #402013",
"G  c #4C201D",
"H  c #58251A",
"J  c #63231C",
"K  c #6A2A1A",
"L  c #71261C",
"P  c #7D231C",
"I  c #752919",
"U  c #7A3017",
"Y  c #66260A",
"T  c #411620",
"R  c #4D1724",
"E  c #541D23",
"W  c #5D1D21",
"Q  c #6F1F20",
"!  c #621B21",
"~  c #472C21",
"^  c #552322",
"/  c #5F2221",
"(  c #632421",
")  c #6D2322",
"_  c #65232C",
"`  c #6C242B",
"'  c #6B2929",
"]  c #752524",
"[  c #732B25",
"{  c #7C2A21",
"}  c #71242A",
"|  c #742D2B",
" . c #7B2B2B",
".. c #7B2523",
"X. c #76342E",
"o. c #733624",
"O. c #792B33",
"+. c #7A3233",
"@. c #852B22",
"#. c #8F2927",
"$. c #8E2728",
"%. c #842D2B",
"&. c #8D2C2E",
"*. c #862529",
"=. c #952B2B",
"-. c #9A2F2F",
";. c #84312C",
":. c #8C322A",
">. c #88382D",
",. c #96322F",
"<. c #99392E",
"1. c #8E2C34",
"2. c #862931",
"3. c #952D36",
"4. c #8A3234",
"5. c #8B363A",
"6. c #953435",
"7. c #9C3433",
"8. c #973834",
"9. c #9D3934",
"0. c #95333C",
"q. c #9D3439",
"w. c #9D3B3A",
"e. c #A72A2E",
"r. c #A3332D",
"t. c #A12F39",
"y. c #A33433",
"u. c #AB3434",
"i. c #A53A34",
"p. c #AA3B35",
"a. c #A6343C",
"s. c #AB353D",
"d. c #AC3C3D",
"f. c #A53E39",
"g. c #BD353C",
"h. c #B43C3B",
"j. c #BC3C3B",
"k. c #B83936",
"l. c #C53A35",
"z. c #C43E3D",
"x. c #CB3D3C",
"c. c #C7373B",
"v. c #D23D3D",
"b. c #B2412F",
"n. c #A5433A",
"m. c #AC423B",
"M. c #B3423B",
"N. c #BC433D",
"B. c #BE4A3B",
"V. c #C4433D",
"C. c #CB433D",
"Z. c #C34B3D",
"A. c #CC4235",
"S. c #D3443C",
"D. c #DA443C",
"F. c #D44A3C",
"G. c #DF483F",
"H. c #DD503F",
"J. c #9E3B40",
"K. c #AF3743",
"L. c #AC3C42",
"P. c #AA374A",
"I. c #B13A41",
"U. c #BC3D41",
"Y. c #B5394B",
"T. c #B93D4D",
"R. c #B73541",
"E. c #C43D42",
"W. c #CC3E44",
"Q. c #CC3E48",
"!. c #C73D4A",
"~. c #D23D44",
"^. c #DB3E44",
"/. c #D33E4B",
"(. c #CA3F54",
"). c #AC4146",
"_. c #B64343",
"`. c #BC4342",
"'. c #BD4A43",
"]. c #B3464A",
"[. c #BB444C",
"{. c #BC4F4C",
"}. c #C44343",
"|. c #CC4444",
" X c #C44A44",
".X c #CC4A44",
"XX c #C4444A",
"oX c #CC454A",
"OX c #C44B4A",
"+X c #CC4B4B",
"@X c #D14646",
"#X c #D44645",
"$X c #D34444",
"%X c #D94345",
"&X c #D24A45",
"*X c #DF4C45",
"=X c #DB4A45",
"-X c #D3444A",
";X c #DC444B",
":X c #D34A4E",
">X c #D34A4C",
",X c #DD4B4B",
"<X c #C15040",
"1X c #C75048",
"2X c #CE514D",
"3X c #D3514D",
"4X c #CB4350",
"5X c #CD4B53",
"6X c #D34352",
"7X c #DE4555",
"8X c #D54B52",
"9X c #DD4B54",
"0X c #D55457",
"qX c #E24543",
"wX c #E24A4C",
"eX c #E34747",
"rX c #F3464A",
"tX c #E64354",
"yX c #E44A53",
"uX c #EB4D54",
"iX c #F0495B",
"pX c #EC5252",
/* pixels */
"                                                                                                                                ",
"                                                                                                                                ",
"                                                                                                                                ",
"                                                                                                                                ",
"                                                                                                                                ",
"                                                                                                                                ",
"                                                                                                                                ",
"                                                                                                                                ",
"|.|.|.|.|.|.|.|.|.|.|.|.|.|.|.|.|.|.|.|.|.|.|.|.|.|.|.|.|.|.|.|.|.|.|.|.|.|.|.|.|.|.|.|.|.|.|.|.|.|.|.|.|.|.|.|.|.|.|.|.|.|.|.|.",
"|.|.|.|.|.|.|.|.|.|.|.|.|.|.|.|.|.|.|.|.|.|.|.|.|.|.|.|.|.|.|.|.|.|.|.|.|.|.|.|.|.|.|.|.|.|.|.|.|.|.|.|.|.|.|.|.|.|.|.|.|.|.|.|.",
"|.|.|.|.|.|.|.|.|.|.|.|.|.|.|.|.|.|.|.|.|.|.|.|.|.|.|.|.|.|.|.|.|.|.|.|.|.|.|.|.|.|.|.|.|.|.|.|.|.|.|.|.|.|.|.|.|.|.|.|.|.|.|.|.",
"|.|.|.|.|.|.|.|.|.|.|.|.|.|.|.|.|.|.|.|.|.|.|.|.|.|.|.|.|.|.|.|.|.|.|.|.|.|.|.|.|.|.|.|.|.|.|.|.|.|.|.|.|.|.|.|.|.|.|.|.|.|.|.|.",
"|.|.|.|.|.|.|.|.|.|.|.|.|.|.|.|.|.|.|.|.|.|.|.|.|.|.|.|.|.|.|.|.|.|.|.|.|.|.|.|.|.|.|.|.|.|.|.|.|.|.|.|.|.|.|.|.|.|.|.|.|.|.|.|.",
"|.|.|.|.|.|.|.|.|.|.|.|.|.|.|.|.|.|.|.|.|.|.|.|.|.|.|.|.|.|.|.|.|.|.|.|.|.|.|.|.|.|.|.|.|.|.|.|.|.|.|.|.|.|.|.|.|.|.|.|.|.|.|.|.",
"|.|.|.|.|.|.|.|.|.|.|.|.|.|.|.|.|.|.|.|.|.|.|.|.|.|.|.|.|.|.|.|.|.|.|.|.|.|.|.|.|.|.|.|.|.|.|.|.|.|.|.|.|.|.|.|.|.|.|.|.|.|.|.|.",
"|.|.|.|.|.|.|.|.|.|.|.|.|.|.|.|.|.|.|.|.|.|.|.|.|.|.|.|.|.|.|.|.|.|.|.|.|.|.|.|.|.|.|.|.|.|.|.|.|.|.|.|.|.|.|.|.|.|.|.|.|.|.|.|.",
"|.|.|.|.|.|.|.|.|.|.|.|.|.|.|.|.|.|.|.|.|.|.|.|.|.|.|.|.|.|.|.|.|.|.|.|.|.|.|.|.|.|.|.$X#X$X|.|.|.|.|.|.|.|.|.|.$X|. X|.^.Z..XC.",
"|.|.|.|.|.|.|.|.|.|.|.|.|.|.|.|.|.|.|.|.|.|.|.|.|.|.|.|.|.|.|.|.|.|.|.|.|.|.|.|.W.|.|.}.XX+X@X@X|.|.|.|.|.|.|.|.|.|.|. X%X.Xj.%X",
"|.|.|.|.|.|.|.|.|.|.|.|.|.|.|.|.|.|.|.|.|.|.|.|.|.|.|.|.|.|.|.|.|.|.|.|.|.|.|.|.#X|.|.@X|.Z.Z.C.|.|.|.|.|.|.|.|.V.@X$XXX|.XXoXoX",
"|.|.|.|.|.|.|.|.|.|.|.|.|.|.|.|.|.|.|.|.|.|.|.|.|.|.|.|.|.|.|.|.|.|.|.|.|.|.|.|.|.$X%X|.|.$X%XC.|.|.|.|.|.|.|.|.|.#X|.$XV.}.9X| ",
"|.|.|.|.|.|.|.|.|.|.|.|.|.|.|.|.|.|.|.|.|.|.|.|.|.|.|.|.|.|.|.|.|.|.|.|.|.|.|.|.oXXX}.|.|.|.XXoX|.|.|.|.|.|.|.|.|.@XXX$X.X+XK.$ ",
"|.|.|.|.|.|.|.|.|.|.|.|.|.|.|.|.|.|.|.|.|.|.|.|.|.|.|.|.|.|.|.|.|.|.|.|.|.|.|.|.|. XC.#X=X|.V.|.|.|.|.|.|.|.|.|.C.|.|.|.S.;XC X ",
"|.|.|.|.|.|.|.|.|.|.|.|.|.|.|.|.|.|.|.|.|.|.|.|.|.|.|.|.|.|.|.|.|.|.|.|.|.|.|.|.C.,Xz.,.9.U.|.+X|.|.|.|.|.|.|.|.C.|.@X Xx.;Xu X ",
"|.|.|.|.|.|.|.|.|.|.|.|.|.|.|.|.|.|.|.|.|.|.|.|.|.|.|.|.|.|.|.|.|.|.|.|.|.|.|.|.-X4.w     . M L.|.|.|.|.|.|.|.|.@X}.oX$XV.:Xz   ",
"|.|.|.|.|.|.|.|.|.|.|.|.|.|.|.|.|.|.|.|.|.|.|.|.|.|.|.|.|.|.|.|.|.|.|.|.|.|.|.|.I.d.j.i.] o X p [.#XB.#XoXoX|.C.|..Xv.C.W.*Xl X ",
"|.|.|.|.|.|.|.|.|.|.|.|.|.|.|.|.|.|.|.|.|.|.|.|.|.|.|.|.|.|.|.|.|.|.|.|.|.|.|.|.k.%X XwX$X`.l   m ;XC.V.oX|..X|.V.}.:X+XXXS.l   ",
"|.|.|.|.|.|.|.|.|.|.|.|.|.|.|.|.|.|.|.|.|.|.|.|.|.|.|.|.|.|.|.|.|.|.|.|.|.|.|.|..X.XW.|..X2X).t . d.=Xv.@X|.}.$X&XQ.V ( 6XD.n   ",
"|.|.|.|.|.|.|.|.|.|.|.|.|.|.|.|.|.|.|.|.|.|.|.|.|.|.|.|.|.|.|.|.|.|.|.|.|.|.|.|.%.{ :X-.%.R.C b X %.#X$X@X.XV.-X&Xs.X . Y.eXx X ",
"|.|.|.|.|.|.|.|.|.|.|.|.|.|.|.|.|.|.|.|.|.|.|.|.|.|.|.|.|.|.|.|.|.|.|.|.|.|.|.}.V ..a.A  .;. .. X 0.#X'.@Xx..X|.#XC O   V *Xl X ",
"|.|.|.|.|.|.|.|.|.|.|.|.|.|.|.|.|.|.|.|.|.|.|.|.|.|.|.|.|.|.|.|.|.|.|.|.|.|.}.j.E.}.) V /.Y ].T O ) :X X|.|.&X}.3Xy     5 &Xb   ",
"|.|.|.|.|.|.|.|.|.|.|.|.|.|.|.|.|.|.|.|.|.|.|.|.|.|.|.|.|.|.|.|.|.|.|.|.|.|.}.j.1X|.J X U.qXH . . 5 }.~.E.+X$X|.oXB X @ 8 &XG   ",
"|.|.|.|.|.|.|.|.|.|.|.|.|.|.|.|.|.|.|.|.|.|.|.|.|.|.|.|.|.|.|.|.|.|.|.|.|.|.}.V./.k.9./ T.9X6.$ X u |.oX:X|.C.|.7Xx X X w ;Xn   ",
"|.|.|.|.|.|.|.|.|.|.|.|.|.|.|.|.|.|.|.|.|.|.|.|.|.|.|.|.|.|.|.|.|.|.|.|.|.|.|.|.h.t 2 N Q.,X) X   @.eX X/. XF.W.&XV     q ;XR   ",
"|.|.|.|.|.|.|.|.|.|.|.|.|.|.|.|.|.|.|.|.|.|.|.|.|.|.|.|.|.|.|.|.|.|.|.|.|.|.|.|.oXy.r.i.>Xz.]   V XX~.%Xx.5XV.@XD.E . X q wXR X ",
"|.|.|.|.|.|.|.|.|.|.|.|.|.|.|.|.|.|.|.|.|.|.|.|.|.|.|.|.|.|.|.|.|.|.|.|.|.|.}.z.V.>XS.H.l.' g . K.>X'.C.$XQ.|.|.,XE   X 6 qXc X ",
"|.|.|.|.|.|.|.|.|.|.|.|.|.|.|.|.|.|.|.|.|.|.|.|.|.|.|.|.|.|.|.|.|.|.|.|.|.|.|.V.S.'.[.,.h @   * [ >XZ. X~.@X|.E..X^   X 6 pXE X ",
"|.|.|.|.|.|.|.|.|.|.|.|.|.|.|.|.|.|.|.|.|.|.|.|.|.|.|.|.|.|.|.|.|.|.|.|.|.|.|.|.r..XP   O   ~ _ . !.W.|.%X XM.+X=XJ   X 9 m.g   ",
"|.|.|.|.|.|.|.|.|.|.|.|.|.|.|.|.|.|.|.|.|.|.|.|.|.|.|.|.|.|.|.|.|.|.|.|.|.|.|.|.j.|.w.< W g.#.r  .O.6X@X|.u.e ~.uXA   o a r X . ",
"|.|.|.|.|.|.|.|.|.|.|.|.|.|.|.|.|.|.|.|.|.|.|.|.|.|.|.|.|.|.|.|.|.|.|.|.|.|.|.|.Q.).oXV.wXi.k {.iXc r n.yXs.q J q.( X   = X X . ",
"|.|.|.|.|.|.|.|.|.|.|.|.|.|.|.|.|.|.|.|.|.|.|.|.|.|.|.|.|.|.|.|.|.|.|.|.|.|.|.z.y.j :Xx.'.E.oX;X7.w @.%.T.] ; d f n   o + . . X ",
"|.|.|.|.|.|.|.|.|.|.|.|.|.|.|.|.|.|.|.|.|.|.|.|.C.$XXX#XZ.|.XXC.%X%X|.x.M.`.p.XXs 6 ;X`.E.W.:XN.Q %.:XS.@X=.w 8 w t . O . X + X ",
"|.|.|.|.|.|.|.|.|.|.|.|.|.|.|.|.|.|.|.|.|.|.|.|.}.;XoXV.|.%X@XoXXXM.i.@X@Xk.U.E.X ^ |.b..X#X>XU d.oXN.@X|.5X5X1.s X # . . .   - ",
"|.|.|.|.|.|.|.|.|.|.|.|.|.|.|.|.|.|.|.|.|.|.|.|.+XE.:X}..X Xz./._.M.Q.~.N.u.9Xi.  W -X X@Xu.&.4.,XV.@XQ.-X|.j.=Xu.  X . O . o O ",
"|.|.|.|.|.|.|.|.|.|.|.|.|.|.|.|.|.|.|.|.|.|.|.|.~.C.M.:.~.#XV. Xh.-X|.|.z.p.yXI i oX#Xx.uXo.J (.B.v.@X@Xz.OX|.|..Xw   + @ X . O ",
"|.|.|.|.|.|.|.|.|.|.|.|.|.|.|.|.|.|.|.|.|.|.|.|. XwXS X } XX>X}.j.|.}. Xv.C.oXN.:X:X|.g.-.>.W.+XoX|.V.$X&X+X~.oX9   1 + o   X o ",
"|.|.|.|.|.|.|.|.|.|.|.|.|.|.|.|.|.|.|.|.|.|.|.|.-X] s O # : r q.|.N.%X|.V.@X0XE.4.A J J &.XXv.C.XX@X|.$X Xc.tXK | J.    $ : . X ",
"|.|.|.|.|.|.|.|.|.|.|.|.|.|.|.|.|.|.|.|.|.|.|.|.[ . X + X # $ h #X#XZ.|..XXXI.k P XXOX~.,XZ.C.Z.~.'.^.@X|.8X;.[ rXC.8.w   + @ o ",
"|.|.|.|.|.|.|.|.|.|.|.|.|.|.|.|.|.|.|.|.|.|.|.|.6._ . . . .   n :X|.@X.X~.8Xe 2.,X|.$X|.}.~.6X4X|.$X}..X-X8.L 7X|.`.wXh.* X $ X ",
"S.E.XX^.=X|.XXC.XX%XS..X|.C.$X/.XX:XZ.|.oXE.^..X$Xm X - X @   ;.,Xp.@Xd.OXU.I :XC.|.|.|.|.E.}.j.E.U.N.v.XX+.6Xv.4X*XN.j.A   . + ",
"|.|.:Xp.u.@X$X|.:Xd.U.tX}. X'..X$X&X%Xz..X@XZ.V.>Xt.= .   .   -.#XM.9.r.;X|.h.|.|.|.:XoX|.|.$X}. X Xc.N.Z.}.%X.XN.M A +.5._     ",
"w.;X#XD ( 0X|.~.k., o X.oX@X%XV.S.v.|.:X.XV.%X;X{ 0.f . o # . f.%Xj.:.h.yXz.}.oX|.|.@Xj.`.}.k.M.}.|.|.e.:Xl.9X8..   ].j ..n X . ",
"y $.9Xx b 1.d.2XoX*   & 7Xv.V.&X<X`.6XQ.z.3X6.n X   X o .   C :XW.`.h.oX@Xj.N.|.@Xz.@Xj.i.h.h.<.h.-X).C ' =.5.X . d h.3.& B ` X ",
"> t z 0 7 $ X :.s.X . # V >X$X-X~.:X-X XV.-X!   # 4 . X X X a.%X}.h.h.$X}.m.}.$X|.|.@XE. XXX}.i.[.`.L.^   & X = X % O.u J F *.= ",
"8 # X d   + X ( P.$ . @ X L XX' E.8X$XB.F.yXW . . . $ X   ; oX.X_.u.<.:X|.p.~.#X|.|.|.@X$X@X:XE.#X}.[ * X .   . @ . v w.h.v 5 # ",
"  . # X - . X . ; %   : . X 5   t y s.oX7.*.% X X ; = X   H %X|.h.M.m.#Xx.N.-X|.|.@Xj.z.%XU.y.W.A.h.* . # X . o     H $.( _ X.j.",
"# . . # . o $ @ . + - . - 3 @ = O X , W X X P.} K E . - X Z ,X|.-XM.z.%X|.}.XX|.|.@XN. X#Xn.K d.G.Y.3 O o $ o . } 5.$XU.@XD.3X$X",
"                                                                                                                                ",
"                                                                                                                                ",
"                                                                                                                                ",
"                                                                                                                                ",
"                                                                                                                                ",
"                                                                                                                                ",
"                                                                                                                                ",
"                                                                                                                                "
};
